<mxfile host="app.diagrams.net" modified="2021-09-03T10:42:51.507Z" agent="5.0 (Windows NT 10.0; Win64; x64) AppleWebKit/537.36 (KHTML, like Gecko) Chrome/92.0.4515.159 Safari/537.36" etag="3McDhkVA58M5uTQ2PPWO" version="15.0.4" type="github">
  <diagram id="BCJporrSiJa8j6uguEra" name="Page-1">
    <mxGraphModel dx="569" dy="370" grid="1" gridSize="10" guides="1" tooltips="1" connect="1" arrows="1" fold="1" page="1" pageScale="1" pageWidth="827" pageHeight="1169" math="0" shadow="0">
      <root>
        <mxCell id="0" />
        <mxCell id="1" parent="0" />
        <mxCell id="Dc-pIXI4qqKBTZ46gM-i-7" value="" style="rounded=1;whiteSpace=wrap;html=1;sketch=1;arcSize=14;dashed=1;" vertex="1" parent="1">
          <mxGeometry x="60" y="70" width="290" height="180" as="geometry" />
        </mxCell>
        <mxCell id="Dc-pIXI4qqKBTZ46gM-i-35" value="" style="rounded=1;whiteSpace=wrap;html=1;sketch=1;arcSize=14;" vertex="1" parent="1">
          <mxGeometry x="300" y="105" width="40" height="130" as="geometry" />
        </mxCell>
        <mxCell id="Dc-pIXI4qqKBTZ46gM-i-31" value="" style="rounded=1;whiteSpace=wrap;html=1;sketch=1;arcSize=14;" vertex="1" parent="1">
          <mxGeometry x="180" y="110" width="100" height="130" as="geometry" />
        </mxCell>
        <mxCell id="Dc-pIXI4qqKBTZ46gM-i-1" value="" style="rounded=1;whiteSpace=wrap;html=1;sketch=1;arcSize=14;" vertex="1" parent="1">
          <mxGeometry x="70" y="110" width="100" height="130" as="geometry" />
        </mxCell>
        <mxCell id="Dc-pIXI4qqKBTZ46gM-i-3" value="" style="rounded=1;whiteSpace=wrap;html=1;sketch=1;arcSize=14;strokeColor=#82b366;" vertex="1" parent="1">
          <mxGeometry x="70" y="150" width="100" height="90" as="geometry" />
        </mxCell>
        <mxCell id="Dc-pIXI4qqKBTZ46gM-i-8" value="host" style="text;html=1;strokeColor=none;fillColor=none;align=center;verticalAlign=middle;whiteSpace=wrap;rounded=0;sketch=1;" vertex="1" parent="1">
          <mxGeometry x="185" y="80" width="40" height="20" as="geometry" />
        </mxCell>
        <mxCell id="Dc-pIXI4qqKBTZ46gM-i-14" value="block device" style="text;html=1;strokeColor=none;fillColor=none;align=center;verticalAlign=middle;whiteSpace=wrap;rounded=0;sketch=1;" vertex="1" parent="1">
          <mxGeometry x="85" y="160" width="70" height="20" as="geometry" />
        </mxCell>
        <mxCell id="Dc-pIXI4qqKBTZ46gM-i-17" value="journal + data" style="rounded=1;whiteSpace=wrap;html=1;sketch=1;arcSize=14;fillColor=#d5e8d4;" vertex="1" parent="1">
          <mxGeometry x="80" y="190" width="80" height="40" as="geometry" />
        </mxCell>
        <mxCell id="Dc-pIXI4qqKBTZ46gM-i-21" value="" style="rounded=1;whiteSpace=wrap;html=1;sketch=1;arcSize=14;strokeColor=#82b366;" vertex="1" parent="1">
          <mxGeometry x="180" y="150" width="100" height="90" as="geometry" />
        </mxCell>
        <mxCell id="Dc-pIXI4qqKBTZ46gM-i-22" value="block device" style="text;html=1;strokeColor=none;fillColor=none;align=center;verticalAlign=middle;whiteSpace=wrap;rounded=0;sketch=1;" vertex="1" parent="1">
          <mxGeometry x="195" y="160" width="70" height="20" as="geometry" />
        </mxCell>
        <mxCell id="Dc-pIXI4qqKBTZ46gM-i-24" value="wal + db + data" style="rounded=1;whiteSpace=wrap;html=1;sketch=1;arcSize=14;fillColor=#d5e8d4;" vertex="1" parent="1">
          <mxGeometry x="190" y="190" width="80" height="40" as="geometry" />
        </mxCell>
        <mxCell id="Dc-pIXI4qqKBTZ46gM-i-30" value="osd" style="text;html=1;strokeColor=none;fillColor=none;align=center;verticalAlign=middle;whiteSpace=wrap;rounded=0;sketch=1;" vertex="1" parent="1">
          <mxGeometry x="85" y="120" width="70" height="20" as="geometry" />
        </mxCell>
        <mxCell id="Dc-pIXI4qqKBTZ46gM-i-32" value="osd" style="text;html=1;strokeColor=none;fillColor=none;align=center;verticalAlign=middle;whiteSpace=wrap;rounded=0;sketch=1;" vertex="1" parent="1">
          <mxGeometry x="195" y="120" width="70" height="20" as="geometry" />
        </mxCell>
        <mxCell id="Dc-pIXI4qqKBTZ46gM-i-33" value="" style="rounded=1;whiteSpace=wrap;html=1;sketch=1;arcSize=14;" vertex="1" parent="1">
          <mxGeometry x="290" y="110" width="40" height="130" as="geometry" />
        </mxCell>
        <mxCell id="Dc-pIXI4qqKBTZ46gM-i-34" value="osd" style="text;html=1;strokeColor=none;fillColor=none;align=center;verticalAlign=middle;whiteSpace=wrap;rounded=0;sketch=1;" vertex="1" parent="1">
          <mxGeometry x="290" y="120" width="40" height="20" as="geometry" />
        </mxCell>
        <mxCell id="Dc-pIXI4qqKBTZ46gM-i-36" value="" style="rounded=1;whiteSpace=wrap;html=1;sketch=1;arcSize=14;strokeColor=#82b366;" vertex="1" parent="1">
          <mxGeometry x="290" y="150" width="40" height="90" as="geometry" />
        </mxCell>
      </root>
    </mxGraphModel>
  </diagram>
</mxfile>
